<svg width="28" height="28" viewBox="0 0 28 28" fill="none" xmlns="http://www.w3.org/2000/svg">
<path fill-rule="evenodd" clip-rule="evenodd" d="M14 1C6.8 1 1 6.8 1 14C1 21.2 6.8 27 14 27C21.2 27 27 21.2 27 14C27 6.8 21.2 1 14 1ZM21.2 22.3V22C21.2 19 18.7 16.5 15.6 16.5H12.6C9.5 16.5 7 19 7 22V22.3C4.6 20.3 3.2 17.3 3.2 14C3 7.9 7.9 3 14 3C20.1 3 25 7.9 25 14C25 17.3 23.5 20.3 21.2 22.3ZM14 6.8C11.8 6.8 10.4 8.3 10.4 10.7C10.4 12.9 12 14.6 14 14.6C16 14.6 17.6 12.9 17.6 10.7C17.6 8.3 16.2 6.8 14 6.8Z" fill="#0057B6"/>
</svg>
