<svg width="24" height="24" viewBox="0 0 24 24" fill="none" xmlns="http://www.w3.org/2000/svg">
<path d="M12 0.5C18.3513 0.5 23.5 5.64873 23.5 12C23.5 18.3513 18.3513 23.5 12 23.5C5.64873 23.5 0.5 18.3513 0.5 12C0.5 5.64873 5.64873 0.5 12 0.5Z" fill="white" stroke="#D7DEE9"/>
<path fill-rule="evenodd" clip-rule="evenodd" d="M7.36099 8.833L8.08399 16.788C8.14699 17.474 8.72199 18 9.41199 18H14.588C15.278 18 15.853 17.474 15.916 16.788L16.639 8.833H7.35999H7.36099ZM13.833 15.708C13.833 15.984 13.609 16.208 13.333 16.208C13.057 16.208 12.833 15.984 12.833 15.708V11.042C12.833 10.766 13.057 10.542 13.333 10.542C13.609 10.542 13.833 10.766 13.833 11.042V15.708ZM10.667 10.542C10.943 10.542 11.167 10.766 11.167 11.042V15.708C11.167 15.984 10.943 16.208 10.667 16.208C10.391 16.208 10.167 15.984 10.167 15.708V11.042C10.167 10.766 10.391 10.542 10.667 10.542ZM12 6C12.276 6 12.5 6.224 12.5 6.5V7H16.833C17.109 7 17.333 7.224 17.333 7.5C17.333 7.776 17.109 8 16.833 8H7.16699C6.89099 8 6.66699 7.776 6.66699 7.5C6.66699 7.224 6.89099 7 7.16699 7H11.5V6.5C11.5 6.224 11.724 6 12 6Z" fill="#0057B6"/>
</svg>
