<svg width="24" height="24" viewBox="0 0 24 24" fill="none" xmlns="http://www.w3.org/2000/svg">
<path d="M12 0.5C18.3513 0.5 23.5 5.64873 23.5 12C23.5 18.3513 18.3513 23.5 12 23.5C5.64873 23.5 0.5 18.3513 0.5 12C0.5 5.64873 5.64873 0.5 12 0.5Z" fill="white" stroke="#D7DEE9"/>
<path fill-rule="evenodd" clip-rule="evenodd" d="M13.366 8.60998L15.39 10.633L9.64997 16.373L7.25697 17.302C6.90697 17.438 6.56097 17.092 6.69697 16.742L7.62697 14.349L13.366 8.60898V8.60998ZM15.1 6.87498C15.379 6.59498 15.832 6.59498 16.112 6.87498L17.124 7.88598C17.403 8.16598 17.403 8.61998 17.124 8.89998L16.097 9.92598L14.072 7.90098L15.1 6.87598V6.87498Z" fill="#0057B6"/>
</svg>
