<svg width="24" height="24" viewBox="0 0 24 24" fill="none" xmlns="http://www.w3.org/2000/svg">
<path fill-rule="evenodd" clip-rule="evenodd" d="M22.7 11.3L19.7 8.3C19.3 7.9 18.7 7.9 18.3 8.3C17.9 8.7 17.9 9.3 18.3 9.7L19.6 11H10.5C9.9 11 9.5 11.4 9.5 12C9.5 12.6 9.9 13 10.5 13H19.6L18.3 14.3C17.9 14.7 17.9 15.3 18.3 15.7C18.5 15.9 18.8 16 19 16C19.2 16 19.5 15.9 19.7 15.7L22.7 12.7C23.1 12.3 23.1 11.7 22.7 11.3ZM17 17C16.4 17 16 17.4 16 18C16 18.6 15.6 19 15.1 19H5.9C5.4 19 5 18.6 5 18V6C5 5.4 5.4 5 5.9 5H15.2C15.6 5 16 5.4 16 6C16 6.6 16.4 7 17 7C17.6 7 18 6.6 18 6C18 4.3 16.7 3 15.1 3H5.9C4.3 3 3 4.3 3 6V18C3 19.7 4.3 21 5.9 21H15.2C16.8 21 18.1 19.7 18.1 18C18 17.4 17.6 17 17 17Z" fill="#0057B6"/>
</svg>
