<svg width="28" height="28" viewBox="0 0 28 28" fill="none" xmlns="http://www.w3.org/2000/svg">
<path fill-rule="evenodd" clip-rule="evenodd" d="M14 4L24.6 12.7H23.3C22.6 12.7 22 13.3 22 14V23.9C22 23.9 21.9 24 21.8 24H18V18.5C18 17.7 17.3 17 16.5 17H11.6C10.8 17 10.1 17.7 10.1 18.5V24H6.19998C6.09998 24 5.99998 24 5.99998 24V14C5.99998 13.3 5.39997 12.7 4.69998 12.7H3.39998L14 4ZM14 2C13.5 2 13.1 2.2 12.8 2.5L1.09997 12.1C0.599975 12.6 0.399975 13.3 0.699975 13.9C0.999975 14.4 1.59997 14.8 2.19998 14.8H3.99997V24C3.99997 25.1 4.99998 26 6.19998 26H10.7C11.4 26 12 25.4 12 24.7V19H16V24.7C16 25.4 16.6 26 17.3 26H21.8C23 26 24 25.1 24 24V14.8H25.8C26.5 14.8 27.1 14.5 27.3 13.9C27.6 13.3 27.4 12.6 26.9 12.1L15.3 2.5C14.9 2.2 14.5 2 14 2Z" fill="white"/>
</svg>
