<svg width="24" height="24" viewBox="0 0 24 24" fill="none" xmlns="http://www.w3.org/2000/svg">
<path fill-rule="evenodd" clip-rule="evenodd" d="M21.1 17.5L19 13.7V10C19 6.1 15.9 3 12 3C8.1 3 5 6.1 5 10V13.7L2.9 17.5C2.7 17.8 2.7 18.2 2.9 18.5C3.1 18.8 3.4 19 3.8 19H10C10 20.1 10.9 21 12 21C13.1 21 14 20.1 14 19H20.2C20.6 19 20.9 18.8 21.1 18.5C21.2 18.2 21.2 17.8 21.1 17.5ZM5.5 17L6.9 14.5C7 14.3 7 14.2 7 14V10C7 7.2 9.2 5 12 5C14.8 5 17 7.2 17 10V14C17 14.2 17 14.3 17.1 14.5L18.5 17H5.5Z" fill="#0057B6"/>
</svg>
